<?xml version="1.0" encoding="UTF-8" standalone="no"?>
<svg
   data-name="Layer 1"
   id="Layer_1"
   viewBox="0 0 64 64"
   version="1.1"
   sodipodi:docname="windy.svg"
   inkscape:version="1.4.2 (f4327f4, 2025-05-13)"
   xmlns:inkscape="http://www.inkscape.org/namespaces/inkscape"
   xmlns:sodipodi="http://sodipodi.sourceforge.net/DTD/sodipodi-0.dtd"
   xmlns="http://www.w3.org/2000/svg"
   xmlns:svg="http://www.w3.org/2000/svg"
   xmlns:rdf="http://www.w3.org/1999/02/22-rdf-syntax-ns#"
   xmlns:cc="http://creativecommons.org/ns#"
   xmlns:dc="http://purl.org/dc/elements/1.1/">
  <metadata
     id="metadata47">
    <rdf:RDF>
      <cc:Work
         rdf:about="">
        <dc:format>image/svg+xml</dc:format>
        <dc:type
           rdf:resource="http://purl.org/dc/dcmitype/StillImage" />
        <dc:title />
      </cc:Work>
    </rdf:RDF>
  </metadata>
  <sodipodi:namedview
     pagecolor="#ffffff"
     bordercolor="#666666"
     borderopacity="1"
     objecttolerance="10"
     gridtolerance="10"
     guidetolerance="10"
     inkscape:pageopacity="0"
     inkscape:pageshadow="2"
     inkscape:window-width="1661"
     inkscape:window-height="912"
     id="namedview45"
     showgrid="false"
     inkscape:zoom="7.5553451"
     inkscape:cx="31.964126"
     inkscape:cy="31.964126"
     inkscape:window-x="0"
     inkscape:window-y="0"
     inkscape:window-maximized="0"
     inkscape:current-layer="Layer_1"
     inkscape:document-rotation="0"
     inkscape:showpageshadow="2"
     inkscape:pagecheckerboard="0"
     inkscape:deskcolor="#d1d1d1" />
  <defs
     id="defs14">
    <style
       id="style2">.cls-1{fill:#efcc00;}.cls-2,.cls-5,.cls-6{fill:none;stroke-linecap:round;stroke-miterlimit:10;stroke-width:3px;}.cls-2{stroke:#efcc00;}.cls-3{fill:url(#linear-gradient);}.cls-4{fill:url(#linear-gradient-2);}.cls-5{stroke:#a5a9aa;}.cls-6{stroke:#b9c1c6;}</style>
    <linearGradient
       gradientTransform="matrix(-1.0559022,0,0,0.99585001,-1028.1613,0.54798825)"
       gradientUnits="userSpaceOnUse"
       id="linear-gradient"
       x1="-989.28"
       x2="-1010.37"
       y1="52.39"
       y2="25.08">
      <stop
         offset="0"
         stop-color="#f2f2f2"
         id="stop4" />
      <stop
         offset="1"
         stop-color="#cfcfcf"
         id="stop6" />
    </linearGradient>
    <linearGradient
       gradientTransform="matrix(0,-1.051669,-1.0003194,0,-109.60099,-1017.9349)"
       gradientUnits="userSpaceOnUse"
       id="linear-gradient-2"
       x1="-1022.95"
       x2="-1011.33"
       y1="-90.94"
       y2="-73.29">
      <stop
         offset="0.02"
         stop-color="#fff"
         id="stop9" />
      <stop
         offset="1"
         stop-color="#fff"
         stop-opacity="0"
         id="stop11" />
    </linearGradient>
  </defs>
  <ellipse
     class="cls-1"
     cx="38.299896"
     cy="22.456686"
     id="circle18"
     style="stroke-width:1.02544"
     rx="13.293808"
     ry="12.537751" />
  <line
     class="cls-2"
     x1="38.299896"
     x2="38.299896"
     y1="2.5396886"
     y2="6.9612608"
     id="line20" />
  <line
     class="cls-2"
     x1="38.299896"
     x2="38.299896"
     y1="37.952118"
     y2="42.373688"
     id="line22" />
  <line
     class="cls-2"
     x1="17.181854"
     x2="21.880617"
     y1="22.456686"
     y2="22.456686"
     id="line24" />
  <line
     class="cls-2"
     x1="54.72974"
     x2="59.417942"
     y1="22.456686"
     y2="22.456686"
     id="line26" />
  <line
     class="cls-2"
     x1="23.369438"
     x2="26.684975"
     y1="8.3753681"
     y2="11.502337"
     id="line28" />
  <line
     class="cls-2"
     x1="49.914825"
     x2="53.230354"
     y1="33.411034"
     y2="36.538006"
     id="line30" />
  <line
     class="cls-2"
     x1="23.369438"
     x2="26.684975"
     y1="36.538006"
     y2="33.411034"
     id="line32" />
  <line
     class="cls-2"
     x1="49.914825"
     x2="53.230354"
     y1="11.502337"
     y2="8.3753681"
     id="line34" />
  <path
     class="cls-3"
     d="m 21.088694,16.382004 a 18.46773,17.417417 0 0 1 16.366482,9.281323 14.518654,13.692937 0 1 1 7.306844,25.513675 l -23.673326,0.05976 a 18.478288,17.427375 0 0 1 0,-34.854749 z"
     id="path36"
     style="fill:url(#linear-gradient);stroke-width:1.02544" />
  <ellipse
     class="cls-4"
     cx="-24.853951"
     cy="53.558113"
     transform="matrix(0.2840398,-0.95881249,0.96699229,0.25480564,0,0)"
     id="circle38"
     style="fill:url(#linear-gradient-2);stroke-width:1.02567"
     rx="13.754391"
     ry="14.460449" />
  <path
     class="cls-5"
     d="m 42.238414,46.855015 a 2.6397554,2.4896251 0 0 1 2.608078,2.489624 v 0 a 2.6397554,2.4896251 0 0 1 -2.639756,2.489624 H 20.032791 a 3.1677065,2.9875501 0 0 0 -3.167705,2.987552 v 0 a 3.1677065,2.9875501 0 0 0 3.167705,2.987549 h 20.854068 a 2.1118043,1.9917001 0 0 1 2.111804,1.9917 v 0.07967 a 2.1118043,1.9917001 0 0 1 -2.111804,1.9917 h -1.84783"
     id="path40" />
  <path
     class="cls-6"
     d="m 50.653954,59.801064 a 2.1118043,1.9917001 0 0 0 2.111804,-1.9917 v 0 a 2.1118043,1.9917001 0 0 0 -2.111804,-1.9917 h -4.223609"
     id="path42" />
</svg>
